<svg xmlns="http://www.w3.org/2000/svg" width="560" height="280" viewBox="0 0 560 280">
  <defs>
    <linearGradient id="g" x1="0" y1="0" x2="1" y2="1">
      <stop offset="0" stop-color="#006F42"/>
      <stop offset="1" stop-color="#57B952"/>
    </linearGradient>
  </defs>
  <rect width="560" height="280" fill="#FFFFFF"/>
  <rect width="190" height="280" fill="url(#g)"/>
  <circle cx="95.0" cy="100" r="66" fill="white" opacity="0.10"/>
  <circle cx="95.0" cy="100" r="48" fill="white" opacity="0.10"/>
  <svg x="56.0" y="61.0" width="78" height="78" viewBox="0 0 24 24">
    <g fill="none" stroke="white" stroke-width="1.7" stroke-linecap="round" stroke-linejoin="round"><path d="M21 16V8a2 2 0 0 0-1-1.73l-7-4a2 2 0 0 0-2 0l-7 4A2 2 0 0 0 3 8v8a2 2 0 0 0 1 1.73l7 4a2 2 0 0 0 2 0l7-4A2 2 0 0 0 21 16z"/><path d="M3.27 6.96 12 12.01l8.73-5.05M12 22.08V12"/></g>
  </svg>
  <svg x="72.0" y="186" width="46" height="46" viewBox="4045 2535 3400 3400" preserveAspectRatio="xMidYMid meet"><path fill="#FFFFFF" d="M4648.32 4073.59l636.59 1365.17 -765.09 355.96 -308.63 -1517.87 437.13 -203.26zm725.61 1192.32l336.75 -167.88c105.65,140.85 282.69,170.72 576.82,18.8l819.92 -382.33c181.4,-90.13 164.26,-214.57 130.07,-328.43 -4.28,-14.25 -13.68,-24.81 -27.34,-30.7 -13.67,-5.89 -27.61,-5.11 -41.09,1.18l-422.32 196.93 -39.04 -83.72 538.07 -250.91c16.64,-7.76 24.7,-27.69 25.58,-46.04 6.48,-134.33 -44.36,-230.89 -105.84,-285.23 -15.2,-13.44 -35.71,-15.59 -54.12,-7l-513.92 239.64 -35.6 -76.34 506.31 -236.1c17.69,-8.25 22.52,-36.93 21.83,-56.45 -4.1,-117.31 -67.62,-232.74 -187.72,-290.66 -13.94,-6.72 -28.64,-6.36 -42.69,0.19l-511.21 238.38 -35.37 -75.86 448.98 -209.36c20.44,-9.53 25.81,-42.28 21.02,-64.32 -41.02,-189.07 -167.92,-247.8 -318.14,-237.87 -29.39,1.94 -589.86,273.16 -665.95,310.54l-281.84 -513.57c-59.06,-93.13 -112.7,-221.7 -276.47,-245.13 -211.24,-30.22 -291.56,94.38 -316.89,203.13 -25.32,108.75 223.84,365.99 276.05,473.69 85.52,184.27 -161.86,318.11 -68.41,617.99l-292.54 139.94 535.09 1147.51z"/></svg><text x="95.0" y="248" text-anchor="middle" font-family="Helvetica,Arial,sans-serif" font-size="14" font-weight="800" letter-spacing="1.4" fill="white">TERRABIT</text><text x="95.0" y="261" text-anchor="middle" font-family="Helvetica,Arial,sans-serif" font-size="8" font-weight="500" letter-spacing="3.6" fill="white" opacity="0.85">SOLUTIONS</text>
  <g><rect x="477.6" y="24" width="58.4" height="24" rx="12" fill="none" stroke="#57B952" stroke-width="1.5"/><text x="506.8" y="40" text-anchor="middle" font-family="Helvetica,Arial,sans-serif" font-size="12" font-weight="700" fill="#006F42">Odoo 19</text></g>
  <text x="214" y="84" font-family="Helvetica,Arial,sans-serif" font-size="30" font-weight="700" fill="#00592F">No Negative Stock</text>
  <text x="214" y="110" font-family="Helvetica,Arial,sans-serif" font-size="14" fill="#5F6B7A">Prevent stock quantities from going below zero</text>
  <circle cx="222" cy="136" r="9" fill="#57B952"/><path d="M217.5 136 l3 3 l5.5 -6" fill="none" stroke="white" stroke-width="2" stroke-linecap="round" stroke-linejoin="round"/><text x="240" y="140" font-family="Helvetica,Arial,sans-serif" font-size="13" fill="#2F3A45">Block negative stock company-wide</text><circle cx="222" cy="164" r="9" fill="#57B952"/><path d="M217.5 164 l3 3 l5.5 -6" fill="none" stroke="white" stroke-width="2" stroke-linecap="round" stroke-linejoin="round"/><text x="240" y="168" font-family="Helvetica,Arial,sans-serif" font-size="13" fill="#2F3A45">Allow exceptions per location</text><circle cx="222" cy="192" r="9" fill="#57B952"/><path d="M217.5 192 l3 3 l5.5 -6" fill="none" stroke="white" stroke-width="2" stroke-linecap="round" stroke-linejoin="round"/><text x="240" y="196" font-family="Helvetica,Arial,sans-serif" font-size="13" fill="#2F3A45">Serial number availability check</text>
</svg>
