<svg xmlns="http://www.w3.org/2000/svg" width="256" height="256" viewBox="0 0 100 100">
<g transform="translate(0.11,0.11) scale(1.0057)"><defs><mask id="cut" maskUnits="userSpaceOnUse" x="-20" y="-20" width="140" height="140"><rect x="-20" y="-20" width="140" height="140" fill="#fff"/><circle cx="77" cy="77" r="19" fill="#000"/></mask></defs><g mask="url(#cut)"><g transform="translate(3,3)" fill="#9CA3AF"><rect x="6" y="6" width="80" height="80" rx="8"/></g><g fill="#D1D5DB"><rect x="6" y="6" width="80" height="80" rx="8"/></g><g transform="translate(2,2)" fill="#1A6F66"><rect x="18" y="44" width="13" height="30" rx="2"/></g><g fill="#1AD3BB"><rect x="18" y="44" width="13" height="30" rx="2"/></g><g transform="translate(2,2)" fill="#712258"><rect x="40" y="24" width="13" height="50" rx="2"/></g><g fill="#985184"><rect x="40" y="24" width="13" height="50" rx="2"/></g><g transform="translate(2,2)" fill="#F78613"><rect x="62" y="36" width="13" height="38" rx="2"/></g><g fill="#FBB945"><rect x="62" y="36" width="13" height="38" rx="2"/></g></g><circle cx="78" cy="78" r="15" fill="#712258"/><circle cx="76" cy="76" r="15" fill="#985184"/><text x="76" y="82.5" font-family="Helvetica, Arial, sans-serif" font-weight="bold" font-size="17" fill="#FFFFFF" text-anchor="middle">%</text></g>
</svg>
