<svg xmlns="http://www.w3.org/2000/svg" width="256" height="256" viewBox="0 0 100 100">
<g transform="translate(-0.53,2.16) scale(0.9838)"><defs><mask id="cut" maskUnits="userSpaceOnUse" x="-20" y="-20" width="140" height="140"><rect x="-20" y="-20" width="140" height="140" fill="#fff"/><circle cx="77" cy="77" r="19" fill="#000"/></mask></defs><g mask="url(#cut)"><rect x="32" y="4" width="28" height="8" rx="3" fill="#9CA3AF"/><g transform="translate(3,3)" fill="#9CA3AF"><path d="M36,12 h20 v24 l26,44 a6,6 0 0 1 -5,8 h-62 a6,6 0 0 1 -5,-8 l26,-44z"/></g><g fill="#D1D5DB"><path d="M36,12 h20 v24 l26,44 a6,6 0 0 1 -5,8 h-62 a6,6 0 0 1 -5,-8 l26,-44z"/></g><path d="M24,58 h44 l12,22 a4,4 0 0 1 -4,6 h-60 a4,4 0 0 1 -4,-6z" fill="#F78613"/></g><circle cx="78" cy="78" r="15" fill="#712258"/><circle cx="76" cy="76" r="15" fill="#985184"/><text x="76" y="82.5" font-family="Helvetica, Arial, sans-serif" font-weight="bold" font-size="17" fill="#FFFFFF" text-anchor="middle">%</text></g>
</svg>
