<svg xmlns="http://www.w3.org/2000/svg" width="256" height="256" viewBox="0 0 100 100">
<g transform="translate(-1.86,0.11) scale(1.0057)"><defs><mask id="cut" maskUnits="userSpaceOnUse" x="-20" y="-20" width="140" height="140"><rect x="-20" y="-20" width="140" height="140" fill="#fff"/><circle cx="77" cy="77" r="19" fill="#000"/></mask></defs><g mask="url(#cut)"><g transform="translate(3,3)" fill="#1A6F66"><path d="M14,6 h40 l18,18 v62 a4,4 0 0 1 -4,4 h-54 a4,4 0 0 1 -4,-4 v-76 a4,4 0 0 1 4,-4z"/></g><g fill="#1AD3BB"><path d="M14,6 h40 l18,18 v62 a4,4 0 0 1 -4,4 h-54 a4,4 0 0 1 -4,-4 v-76 a4,4 0 0 1 4,-4z"/></g><path d="M54,6 v14 a4,4 0 0 0 4,4 h14z" fill="#1A6F66"/><rect x="18" y="32" width="46" height="18" rx="3" fill="#FFFFFF"/><text x="41" y="46" font-family="Helvetica, Arial, sans-serif" font-weight="bold" font-size="13" fill="#1A6F66" text-anchor="middle">XLS</text><g fill="#FFFFFF"><rect x="18" y="56" width="20" height="8" rx="1"/><rect x="42" y="56" width="22" height="8" rx="1"/><rect x="18" y="68" width="20" height="8" rx="1"/><rect x="42" y="68" width="22" height="8" rx="1"/></g></g><circle cx="78" cy="78" r="15" fill="#144496"/><circle cx="76" cy="76" r="15" fill="#088BF5"/><path d="M84,74 a8,8 0 1 0 -2,7 M84,67 v7 h-7" fill="none" stroke="#FFFFFF" stroke-width="3.5" stroke-linecap="round" stroke-linejoin="round"/></g>
</svg>
