<svg xmlns="http://www.w3.org/2000/svg" width="256" height="256" viewBox="0 0 100 100">
<g transform="translate(-2.92,-4.54) scale(1.0382)"><defs><mask id="cut" maskUnits="userSpaceOnUse" x="-20" y="-20" width="140" height="140"><rect x="-20" y="-20" width="140" height="140" fill="#fff"/><circle cx="77" cy="77" r="19" fill="#000"/></mask></defs><g mask="url(#cut)"><g transform="translate(3,3)" fill="#F9464C"><path d="M46,84 C10,60 4,40 12,24 C20,8 40,8 46,24 C52,8 72,8 80,24 C88,40 82,60 46,84z"/></g><g fill="#FC868B"><path d="M46,84 C10,60 4,40 12,24 C20,8 40,8 46,24 C52,8 72,8 80,24 C88,40 82,60 46,84z"/></g></g><circle cx="78" cy="78" r="15" fill="#F78613"/><circle cx="76" cy="76" r="15" fill="#FBB945"/><path d="M67,71.5 l9,-5 l9,5 v10 l-9,5 l-9,-5z" fill="#FFFFFF"/><path d="M67,71.5 l9,5 l9,-5 M76,76.5 v10" fill="none" stroke="#FBB945" stroke-width="1.8" stroke-linejoin="round"/></g>
</svg>
