<svg xmlns="http://www.w3.org/2000/svg" width="256" height="256" viewBox="0 0 100 100">
<g transform="translate(4.49,6.00) scale(0.9669)"><g transform="translate(3,3)" fill="#F78613"><rect x="6" y="36" width="38" height="36" rx="3"/><rect x="48" y="36" width="38" height="36" rx="3"/><rect x="27" y="0" width="38" height="36" rx="3"/></g><g fill="#FBB945"><rect x="6" y="36" width="38" height="36" rx="3"/><rect x="48" y="36" width="38" height="36" rx="3"/><rect x="27" y="0" width="38" height="36" rx="3"/></g><g fill="#F78613"><rect x="21" y="36" width="8" height="12"/><rect x="63" y="36" width="8" height="12"/><rect x="42" y="0" width="8" height="12"/></g><g transform="translate(2,2)" fill="#8B5E34"><rect x="4" y="74" width="84" height="7" rx="1"/><rect x="8" y="81" width="12" height="8"/><rect x="40" y="81" width="12" height="8"/><rect x="72" y="81" width="12" height="8"/></g><g fill="#C08A4E"><rect x="4" y="74" width="84" height="7" rx="1"/><rect x="8" y="81" width="12" height="8"/><rect x="40" y="81" width="12" height="8"/><rect x="72" y="81" width="12" height="8"/></g></g>
</svg>
