<svg xmlns="http://www.w3.org/2000/svg" width="256" height="256" viewBox="0 0 100 100">
<g transform="translate(2.16,-0.72) scale(0.9838)"><defs><mask id="cut" maskUnits="userSpaceOnUse" x="-20" y="-20" width="140" height="140"><rect x="-20" y="-20" width="140" height="140" fill="#fff"/><circle cx="77" cy="77" r="19" fill="#000"/></mask></defs><g mask="url(#cut)"><g transform="translate(3,3)" fill="#088BF5"><rect x="4" y="10" width="84" height="72" rx="7"/></g><g fill="#2EBCFA"><rect x="4" y="10" width="84" height="72" rx="7"/></g><rect x="10" y="24" width="72" height="52" rx="3" fill="#FFFFFF"/><g fill="#FFFFFF"><circle cx="12" cy="17" r="2.4"/><circle cx="19" cy="17" r="2.4"/><circle cx="26" cy="17" r="2.4"/></g><rect x="18" y="34" width="56" height="5" rx="2.5" fill="#2EBCFA"/><rect x="18" y="45" width="44" height="5" rx="2.5" fill="#2EBCFA"/></g><circle cx="78" cy="78" r="15" fill="#1A6F66"/><circle cx="76" cy="76" r="15" fill="#03AF89"/><rect x="71" y="66" width="10" height="20" rx="2.5" fill="#FFFFFF"/><rect x="73" y="69" width="6" height="12" fill="#03AF89"/></g>
</svg>
