<svg xmlns="http://www.w3.org/2000/svg" width="256" height="256" viewBox="0 0 100 100">
<g transform="translate(1.20,2.16) scale(0.9838)"><defs><mask id="cut" maskUnits="userSpaceOnUse" x="-20" y="-20" width="140" height="140"><rect x="-20" y="-20" width="140" height="140" fill="#fff"/><circle cx="77" cy="77" r="19" fill="#000"/></mask></defs><g mask="url(#cut)"><g transform="translate(2,2)" fill="#144496"><rect x="6" y="4" width="8" height="84"/><rect x="78" y="4" width="8" height="84"/></g><g fill="#005E7A"><rect x="6" y="4" width="8" height="84"/><rect x="78" y="4" width="8" height="84"/></g><rect x="6" y="30" width="80" height="6" fill="#005E7A"/><rect x="6" y="58" width="80" height="6" fill="#005E7A"/><rect x="6" y="84" width="80" height="6" fill="#005E7A"/><g transform="translate(1.5,1.5)" fill="#F78613"><rect x="18" y="12" width="20" height="18" rx="2"/></g><g fill="#FBB945"><rect x="18" y="12" width="20" height="18" rx="2"/></g><g transform="translate(1.5,1.5)" fill="#F78613"><rect x="42" y="16" width="16" height="14" rx="2"/></g><g fill="#FBB945"><rect x="42" y="16" width="16" height="14" rx="2"/></g><g transform="translate(1.5,1.5)" fill="#F78613"><rect x="60" y="10" width="14" height="20" rx="2"/></g><g fill="#FBB945"><rect x="60" y="10" width="14" height="20" rx="2"/></g><g transform="translate(1.5,1.5)" fill="#F78613"><rect x="18" y="42" width="24" height="16" rx="2"/></g><g fill="#FBB945"><rect x="18" y="42" width="24" height="16" rx="2"/></g><g transform="translate(1.5,1.5)" fill="#F78613"><rect x="48" y="44" width="26" height="14" rx="2"/></g><g fill="#FBB945"><rect x="48" y="44" width="26" height="14" rx="2"/></g><g transform="translate(1.5,1.5)" fill="#F78613"><rect x="22" y="70" width="18" height="14" rx="2"/></g><g fill="#FBB945"><rect x="22" y="70" width="18" height="14" rx="2"/></g><g transform="translate(1.5,1.5)" fill="#F78613"><rect x="46" y="68" width="28" height="16" rx="2"/></g><g fill="#FBB945"><rect x="46" y="68" width="28" height="16" rx="2"/></g></g><circle cx="78" cy="78" r="15" fill="#144496"/><circle cx="76" cy="76" r="15" fill="#088BF5"/><circle cx="74" cy="74" r="5.5" fill="none" stroke="#FFFFFF" stroke-width="3.5" stroke-linecap="round" stroke-linejoin="round"/><path d="M78,78 l5,5" fill="none" stroke="#FFFFFF" stroke-width="4" stroke-linecap="round" stroke-linejoin="round"/></g>
</svg>
