<svg xmlns="http://www.w3.org/2000/svg" xmlns:xlink="http://www.w3.org/1999/xlink" width="560" height="280">
    <defs>

        <svg id='logo' viewBox="6350 2500 3000 3000">
            <g>
                <path fill="#BFC6BD" fill-rule="nonzero"
                      d="M7338.82 5241.89c-336.4,511.49 -915.39,849.23 -1573.35,849.23 -318.43,0 -618.3,-79.19 -881.23,-218.8l-465.06 216.37c-72.83,33.95 -159.37,2.44 -193.35,-70.37 -5.59,-12.01 -9.4,-24.39 -11.54,-36.85l-247.52 -1217.33c-54.07,-175.41 -83.21,-361.76 -83.21,-554.92 0,-657.98 337.78,-1237 849.31,-1573.39 -400.37,339.2 -654.6,845.59 -654.6,1411.43 0,184.82 27.28,368.48 81.7,545.13l0.48 1.54 247.97 1219.53 0.08 0.48c1.71,9.89 4.72,19.5 8.96,28.59 26.29,56.38 93.5,80.75 149.87,54.52l479.82 -223.25 14.39 7.64c267.26,141.92 563.34,214.99 865.9,214.99 565.81,0 1072.18,-254.2 1411.38,-654.54z"/>
                <path fill="#BFC6BD" fill-rule="nonzero"
                      d="M5927.44 2165.35c1039.34,0 1881.91,842.57 1881.91,1881.91 0,1039.34 -842.57,1881.89 -1881.91,1881.89 -318.43,0 -618.33,-79.2 -881.24,-218.81l-465.06 216.38c-72.81,33.95 -159.37,2.44 -193.34,-70.36 -5.59,-12.01 -9.41,-24.4 -11.55,-36.86l-247.56 -1217.47c-54.04,-175.36 -83.16,-361.66 -83.16,-554.76 0,-1039.34 842.56,-1881.91 1881.9,-1881.91z"/>
                <path fill="#FEFEFE"
                      d="M4648.32 4073.59l636.59 1365.17 -765.09 355.96 -308.63 -1517.87 437.13 -203.26zm725.61 1192.32l336.75 -167.88c105.65,140.85 282.69,170.72 576.82,18.8l819.92 -382.33c181.4,-90.13 164.26,-214.57 130.07,-328.43 -4.28,-14.25 -13.68,-24.81 -27.34,-30.7 -13.67,-5.89 -27.61,-5.11 -41.09,1.18l-422.32 196.93 -39.04 -83.72 538.07 -250.91c16.64,-7.76 24.7,-27.69 25.58,-46.04 6.48,-134.33 -44.36,-230.89 -105.84,-285.23 -15.2,-13.44 -35.71,-15.59 -54.12,-7l-513.92 239.64 -35.6 -76.34 506.31 -236.1c17.69,-8.25 22.52,-36.93 21.83,-56.45 -4.1,-117.31 -67.62,-232.74 -187.72,-290.66 -13.94,-6.72 -28.64,-6.36 -42.69,0.19l-511.21 238.38 -35.37 -75.86 448.98 -209.36c20.44,-9.53 25.81,-42.28 21.02,-64.32 -41.02,-189.07 -167.92,-247.8 -318.14,-237.87 -29.39,1.94 -589.86,273.16 -665.95,310.54l-281.84 -513.57c-59.06,-93.13 -112.7,-221.7 -276.47,-245.13 -211.24,-30.22 -291.56,94.38 -316.89,203.13 -25.32,108.75 223.84,365.99 276.05,473.69 85.52,184.27 -161.86,318.11 -68.41,617.99l-292.54 139.94 535.09 1147.51z"/>
            </g>
        </svg>

        <svg id='rotite' viewBox="6000 1000 10000 10000">
            <g>
                <path fill="#8BC875"
                      d="M5298.75 4246.09c-43.7,-158.14 -117.69,-307.96 -219.33,-440.11 -24.23,-31.49 -50.03,-61.91 -77.42,-91.28l466.64 -465.78c30.63,32.07 59.95,65.02 87.92,98.73l174.32 -78.21 174.26 -78.15c73.06,70.95 133.06,146.59 180.44,226.99 47.39,80.32 82.06,165.34 104.29,255.03l-156.69 110.5 -156.62 110.56c10.89,28.7 21.13,57.89 30.76,87.19 9.63,29.37 18.67,58.94 27,88.65 8.7,31.49 16.5,63.09 23.56,94.97 7.07,31.88 13.34,63.97 19.01,96.3l190.62 19.69 190.56 19.53c27.39,97.69 41.46,193.12 42.25,286.45 0.78,93.34 -11.55,184.5 -37.29,273.33l-190.9 17.16 -190.88 17.16c-9.71,62.06 -22.51,123.9 -38.54,185.47 -16.04,61.52 -35.25,122.64 -57.5,183.04l154.71 111.94 154.71 111.94c-25.01,98.75 -60.52,188.7 -106.38,269.96 -45.88,81.18 -102.25,153.72 -169.04,217.54l-173.59 -80.45 -173.67 -80.45c-33.79,41.78 -68.96,81.7 -105.67,119.93l-466.04 -467.06c67.78,-72.67 128.18,-154.45 179.46,-244.61 87.11,-154.51 138.94,-319.32 157.95,-485.06 19.01,-165.75 5.2,-332.53 -39.01,-490.89l0.13 0z"/>
                <path fill="#C3DC7B"
                      d="M4933.85 3646.77c-71.47,-65.88 -151.55,-124.69 -239.86,-174.58 -154.37,-87.19 -319.19,-139.07 -484.92,-158 -165.68,-19.09 -332.34,-5.28 -490.48,38.67 -158.34,43.69 -308.3,117.81 -440.58,219.52 -31.49,24.23 -61.91,50.03 -91.29,77.29l-465.93 -466.77c32.01,-30.56 64.96,-59.93 98.62,-87.92l-78.07 -174.25 -78.23 -174.26c70.95,-72.85 146.67,-133.06 227.12,-180.51 80.39,-47.39 165.54,-82.04 255.24,-103.82l110.37 156.69 110.22 156.62c28.91,-11.09 57.94,-21.39 87.26,-30.96 29.37,-9.51 58.99,-18.47 88.91,-26.8 31.6,-8.85 63.17,-16.82 94.97,-23.95 31.88,-7.2 63.82,-13.54 96.09,-19.14l19.55 -190.3 19.46 -190.43c98.15,-27.78 193.8,-42.04 286.99,-42.83 93.32,-0.65 184.22,11.94 272.6,37.81l17.36 190.69 17.21 190.82c62.12,9.76 124.1,22.69 185.62,38.67 61.5,16.03 122.63,35.17 183.15,57.76l112.02 -154.97 112 -154.99c98.49,25.22 188.31,60.86 269.5,106.74 81.05,45.87 153.59,102.1 217.43,168.7l-80.47 173.85 -80.38 173.93c39.85,32.15 78.34,65.86 115.18,100.85l-466.66 465.86z"/>
                <path fill="#2E587B"
                      d="M3118.9 3717.87c-66.06,71.55 -125,151.74 -174.9,240.13 -87.21,154.24 -139.02,319 -158.02,484.6 -19.01,165.73 -5.22,332.59 38.75,490.95 44.15,158.08 118.34,307.91 220.05,440.04 22.92,29.71 47.2,58.54 72.82,86.35l-467.26 466.38c-28.91,-30.5 -56.69,-61.85 -83.62,-94l-174.11 78.41 -174.19 78.41c-72.67,-71.15 -132.87,-146.91 -180.27,-227.31 -47.32,-80.39 -82.04,-165.34 -103.82,-255.05l156.51 -110.56 156.54 -110.48c-10.94,-29.11 -21.26,-58.28 -30.89,-87.65 -9.77,-29.37 -18.73,-58.94 -27.06,-88.57 -8.72,-31.36 -16.84,-63.03 -24.02,-94.99 -7.2,-32.01 -13.53,-64.16 -19.01,-96.49l-190.04 -19.14 -190.09 -19.08c-27.65,-98.15 -41.83,-193.72 -42.7,-286.99 -0.86,-93.27 11.68,-184.14 37.55,-272.73l190.35 -17.55 190.43 -17.49c9.97,-62.1 23.03,-123.88 39.22,-185.34 16.22,-61.44 35.44,-122.5 57.94,-183.28l-155.05 -112.02 -155.11 -112.07c24.89,-98.28 60.26,-188.06 106.2,-269.24 45.8,-81.13 102.25,-153.72 169.04,-217.82l174.04 80.27 174.19 80.26c32.09,-39.8 65.75,-78.09 100.53,-114.78l465.99 466.85z"/>
                <path fill="#35777C"
                      d="M3185.42 5528.09c72.69,67.78 154.45,128.18 244.74,179.28 154.19,87.64 318.94,139.59 484.6,158.61 165.75,19.06 332.48,5.35 490.74,-38.35 158.36,-44.21 308.11,-118.47 440.13,-220.26 29.69,-22.9 58.54,-47.26 86.25,-72.8l466.19 466.98c-30.63,28.91 -62.04,56.69 -94.31,83.5l78.28 174.17 78.15 174.19c-70.96,72.93 -146.54,133.01 -226.86,180.4 -80.32,47.37 -165.34,82.04 -255.11,104.08l-110.43 -156.96 -110.43 -156.9c-28.85,11.09 -57.94,21.59 -87.26,31.28 -29.3,9.78 -58.86,18.95 -88.63,27.54 -31.43,8.38 -63.31,16.17 -95.12,23.35 -31.81,7.07 -63.95,13.55 -95.78,19.21l-19.53 190.3 -19.54 190.41c-97.81,27.52 -193.67,41.72 -286.93,42.59 -93.25,0.78 -184.35,-11.69 -272.92,-37.63l-17.42 -190.69 -17.36 -190.82c-62.3,-9.56 -124.16,-22.51 -185.6,-38.61 -61.39,-16.09 -122.44,-35.51 -182.7,-58.15l-112.02 155.38 -111.87 155.37c-98.68,-25.28 -188.65,-60.92 -269.83,-106.85 -81.39,-46.01 -153.93,-102.51 -217.67,-169.51l80.71 -173.59 80.74 -173.65c-42.06,-33.79 -82.12,-68.98 -120.4,-105.54l467.17 -466.32z"/>
                <path fill="#8BC875"
                      d="M9143.11 2835.19c-32.72,-118.55 -88.24,-231.01 -164.48,-330.08 -15.9,-20.68 -32.8,-40.86 -50.56,-60.34l349.35 -350.21c20.54,21.78 40.26,44.02 59.08,66.79l130.69 -58.67 130.74 -58.54c54.78,53.12 99.74,109.96 135.31,170.15 35.51,60.26 61.52,124.03 78.22,191.35l-117.5 82.85 -117.56 82.89c8.2,21.59 15.92,43.44 23.11,65.43 7.2,21.97 14,44.16 20.26,66.46 6.47,23.63 12.35,47.39 17.63,71.28 5.35,23.89 10.1,47.99 14.33,72.28l142.96 14.65 142.89 14.65c20.52,73.21 31.09,144.81 31.75,214.92 0.53,69.96 -8.77,138.34 -27.99,204.87l-143.22 12.93 -143.17 12.87c-7.18,46.53 -16.89,92.93 -28.91,139.15 -12.01,46.14 -26.4,91.94 -43.16,137.29l116.09 83.88 116.04 83.97c-18.74,74.11 -45.41,141.5 -79.8,202.43 -34.44,60.94 -76.64,115.38 -126.72,163.3l-130.3 -60.4 -130.22 -60.45c-21.93,27.19 -44.62,53.26 -68.2,78.41l-350.4 -349.76c46.72,-51.68 88.57,-109.23 124.4,-172.34 65.35,-115.91 104.23,-239.52 118.41,-363.81 14.33,-124.35 4.02,-249.37 -29.17,-368.17l0.06 0z"/>
                <path fill="#C3DC7B"
                      d="M8862.09 2379.03c-51.68,-46.74 -109.3,-88.57 -172.47,-124.29 -115.91,-65.33 -239.47,-104.29 -363.76,-118.47 -124.29,-14.33 -249.24,-3.89 -367.84,29.04 -118.81,32.74 -231.27,88.31 -330.49,164.61 -20.71,15.98 -40.85,32.74 -60.32,50.5l-350.28 -349.56c21.65,-20.39 43.89,-40.07 66.66,-58.94l-58.67 -130.76 -58.54 -130.61c53.19,-54.73 110.03,-99.8 170.35,-135.39 60.26,-35.57 124.16,-61.57 191.34,-77.94l82.78 117.55 82.77 117.48c21.57,-8.31 43.43,-16.04 65.41,-23.24 22.04,-7.19 44.21,-13.85 66.72,-20.13 23.57,-6.58 47.39,-12.59 71.23,-17.94 23.81,-5.35 47.91,-10.03 72.01,-14.33l14.65 -142.76 14.65 -142.78c73.59,-20.86 145.34,-31.49 215.3,-32.07 69.85,-0.6 138.1,8.91 204.43,28.31l13 143.04 12.87 143.02c46.59,7.47 93.06,17.1 139.2,29.11 46.19,11.96 92.01,26.34 137.42,43.3l84.03 -116.3 83.95 -116.15c73.92,18.94 141.31,45.6 202.18,79.98 60.79,34.46 115.18,76.64 163.02,126.46l-60.32 130.5 -60.34 130.43c27.07,21.78 53.21,44.55 78.49,68.18l-349.43 350.16z"/>
                <path fill="#2E587B"
                      d="M7501.39 2446.38c-46.81,51.75 -88.65,109.43 -124.42,172.67 -65.35,115.7 -104.23,239.26 -118.49,363.55 -14.26,124.27 -3.89,249.37 29.06,368.1 33.13,118.68 88.7,231.01 165.07,330.08 15.91,20.73 32.72,40.81 50.48,60.34l-349.74 350.6c-20.47,-21.7 -40.26,-43.95 -59.35,-66.85l-130.56 58.81 -130.69 58.8c-54.52,-53.32 -99.59,-110.22 -135.18,-170.56 -35.51,-60.24 -61.5,-124.01 -77.87,-191.27l117.42 -82.9 117.41 -82.83c-8.25,-21.78 -15.96,-43.7 -23.22,-65.74 -7.26,-21.98 -13.99,-44.16 -20.26,-66.46 -6.61,-23.44 -12.61,-47.26 -18.02,-71.23 -5.35,-23.95 -10.18,-48.04 -14.2,-72.46l-142.57 -14.26 -142.63 -14.33c-20.68,-73.53 -31.36,-145.28 -32.01,-215.24 -0.6,-69.9 8.77,-138.15 28.23,-204.48l142.78 -13.21 142.78 -13.14c7.44,-46.53 17.29,-92.85 29.37,-138.94 12.14,-46.2 26.59,-91.94 43.43,-137.48l-116.24 -84.08 -116.3 -83.97c18.62,-73.8 45.22,-141.11 79.61,-201.98 34.39,-60.84 76.69,-115.31 126.8,-163.35l130.61 60.26 130.5 60.19c21.83,-27 44.47,-53 67.92,-78.15l350.29 349.5z"/>
                <path fill="#35777C"
                      d="M7569.14 3806.89c51.68,46.72 109.3,88.5 172.52,124.22 115.65,65.72 239.13,104.74 363.42,119.07 124.29,14.26 249.31,3.97 368.11,-28.85 118.73,-33.13 231.07,-88.91 330.08,-165.21 20.73,-15.96 40.79,-32.8 60.26,-50.63l350.47 349.7c-21.78,20.45 -44.21,40.13 -67.11,59.2l58.68 130.63 58.67 130.69c-53.27,54.65 -109.9,99.8 -170.17,135.29 -60.32,35.51 -124.01,61.52 -191.4,78.09l-82.78 -117.76 -82.83 -117.69c-21.65,8.38 -43.5,16.19 -65.41,23.44 -22.06,7.39 -44.23,14.19 -66.48,20.66 -23.63,6.32 -47.45,12.14 -71.42,17.49 -23.89,5.33 -47.86,10.16 -71.88,14.39l-14.52 142.76 -14.65 142.83c-73.4,20.67 -145.21,31.3 -215.24,31.96 -69.96,0.65 -138.21,-8.78 -204.69,-28.2l-13.13 -143.09 -13.06 -143.09c-46.66,-7.19 -93.06,-16.89 -139.15,-28.91 -46.01,-12.15 -91.81,-26.66 -137.01,-43.71l-84.03 116.58 -83.97 116.56c-73.92,-18.95 -141.44,-45.75 -202.37,-80.21 -60.98,-34.52 -115.37,-76.82 -163.22,-127.11l60.6 -130.22 60.51 -130.16c-27.24,-21.91 -53.46,-44.7 -78.68,-68.13l349.84 -350.6z"/>
            </g>
        </svg>

        <svg id="terrabit" width="200" height="200" viewBox="6000 1000 10000 10000">
            <g>
                <polygon fill="#57B952" fill-rule="nonzero"
                         points="1909.45,4374.48 9783.46,4374.48 9783.46,4419.37 1909.45,4419.37 "/>
                <path fill="#006F42" fill-rule="nonzero"
                      d="M2220.54 4157.66l353.38 0 0 -758.1 311.09 0 0 -299.01 -975.56 0 0 299.01 311.09 0 0 758.1zm744.51 0l909.12 0 0 -289.96 -561.78 0 0 -114.77 516.48 0 0 -255.22 -516.48 0 0 -107.22 554.23 0 0 -289.95 -901.57 0 0 1057.11zm1004.26 0l353.39 0 0 -302.03 72.48 0 3.02 0 199.34 302.03 403.21 0 -246.15 -359.42c128.36,-61.92 208.4,-169.14 208.4,-323.18l0 -3.02c0,-108.73 -33.22,-187.26 -96.65,-250.69 -74,-74 -193.3,-120.81 -380.56,-120.81l-516.48 0 0 1057.11zm353.39 -554.23l0 -206.89 154.03 0c81.55,0 134.41,33.22 134.41,101.18l0 3.02c0,64.93 -51.35,102.69 -135.91,102.69l-152.53 0zm726.38 554.23l353.39 0 0 -302.03 72.48 0 3.02 0 199.34 302.03 403.21 0 -246.15 -359.42c128.36,-61.92 208.4,-169.14 208.4,-323.18l0 -3.02c0,-108.73 -33.22,-187.26 -96.65,-250.69 -74,-74 -193.31,-120.81 -380.56,-120.81l-516.48 0 0 1057.11zm353.39 -554.23l0 -206.89 154.03 0c81.55,0 134.41,33.22 134.41,101.18l0 3.02c0,64.93 -51.35,102.69 -135.91,102.69l-152.53 0zm611.61 554.23l377.54 0 54.36 -141.96 370 0 55.87 141.96 383.58 0 -445.5 -1064.67 -350.36 0 -445.5 1064.67zm521 -392.64l96.65 -256.73 96.65 256.73 -193.3 0zm764.15 392.64l585.94 0c267.3,0 406.24,-123.83 406.24,-292.97l0 -3.02c0,-144.98 -87.59,-217.46 -223.5,-256.73 113.26,-39.27 188.77,-116.28 188.77,-241.63l0 -3.02c0,-72.49 -27.18,-126.85 -64.93,-164.6 -61.92,-61.92 -154.04,-95.14 -300.53,-95.14l-591.98 0 0 1057.11zm344.32 -641.82l0 -148 152.53 0c75.51,0 113.26,25.68 113.26,72.49l0 3.02c0,46.81 -36.25,72.49 -111.75,72.49l-154.04 0zm0 374.52l0 -157.06 178.2 0c77.02,0 114.77,31.72 114.77,77.02l0 3.02c0,45.3 -39.26,77.02 -116.28,77.02l-176.69 0zm727.9 267.3l353.38 0 0 -1057.11 -353.38 0 0 1057.11zm747.53 0l353.39 0 0 -758.1 311.09 0 0 -299.01 -975.56 0 0 299.01 311.09 0 0 758.1z"/>
                <path fill="black"
                      d="M2624.45 5011.83l0 -1.49c0,-90.75 -59.51,-128.69 -165.14,-156.21 -90,-23.06 -112.32,-34.21 -112.32,-68.43l0 -1.49c0,-25.29 23.06,-45.37 66.95,-45.37 43.89,0 89.26,19.34 135.38,51.32l59.5 -86.28c-52.81,-42.4 -117.52,-66.2 -193.39,-66.2 -106.37,0 -182.25,62.48 -182.25,156.95l0 1.49c0,103.39 67.69,132.4 172.57,159.18 87.03,22.31 104.89,37.19 104.89,66.2l0 1.49c0,30.49 -28.26,49.09 -75.13,49.09 -59.51,0 -108.6,-24.55 -155.46,-63.22l-67.69 81.08c62.48,55.79 142.07,83.31 220.92,83.31 112.32,0 191.17,-58.02 191.17,-161.41zm976.49 -106.37l0 -1.49c0,-148.02 -115.3,-267.78 -275.96,-267.78 -160.67,0 -277.46,121.25 -277.46,269.27l0 1.49c0,148.02 115.3,267.78 275.97,267.78 160.67,0 277.45,-121.25 277.45,-269.28zm-119.76 1.49c0,89.26 -63.97,162.16 -156.2,162.16 -92.24,0 -157.7,-74.39 -157.7,-163.65l0 -1.49c0,-89.26 63.97,-162.16 156.21,-162.16 92.24,0 157.69,74.39 157.69,163.65l0 1.49zm942.28 258.85l0 -104.13 -259.61 0 0 -416.56 -114.56 0 0 520.69 374.16 0zm863.42 -226.87l0 -293.81 -114.55 0 0 298.28c0,82.56 -42.4,124.96 -112.32,124.96 -69.92,0 -112.32,-43.89 -112.32,-128.69l0 -294.56 -114.55 0 0 297.54c0,153.23 85.55,231.33 225.39,231.33 139.84,0 228.36,-77.35 228.36,-235.06zm857.48 -188.19l0 -105.62 -431.43 0 0 105.62 158.44 0 0 415.07 114.55 0 0 -415.07 158.43 0zm553.99 415.07l0 -520.69 -114.55 0 0 520.69 114.55 0zm1006.98 -260.35l0 -1.49c0,-148.02 -115.29,-267.78 -275.96,-267.78 -160.67,0 -277.46,121.25 -277.46,269.27l0 1.49c0,148.02 115.3,267.78 275.97,267.78 160.67,0 277.45,-121.25 277.45,-269.28zm-119.76 1.49c0,89.26 -63.96,162.16 -156.2,162.16 -92.24,0 -157.7,-74.39 -157.7,-163.65l0 -1.49c0,-89.26 63.97,-162.16 156.21,-162.16 92.24,0 157.69,74.39 157.69,163.65l0 1.49zm1030.8 258.85l0 -520.69 -113.07 0 0 320.6 -243.98 -320.6 -105.62 0 0 520.69 113.06 0 0 -331.01 252.17 331.01 97.44 0zm847.8 -153.97l0 -1.49c0,-90.75 -59.51,-128.69 -165.14,-156.21 -90,-23.06 -112.32,-34.21 -112.32,-68.43l0 -1.49c0,-25.29 23.06,-45.37 66.95,-45.37 43.88,0 89.26,19.34 135.38,51.32l59.51 -86.28c-52.81,-42.4 -117.53,-66.2 -193.4,-66.2 -106.37,0 -182.24,62.48 -182.24,156.95l0 1.49c0,103.39 67.69,132.4 172.57,159.18 87.03,22.31 104.88,37.19 104.88,66.2l0 1.49c0,30.49 -28.26,49.09 -75.13,49.09 -59.51,0 -108.6,-24.55 -155.46,-63.22l-67.69 81.08c62.48,55.79 142.07,83.31 220.92,83.31 112.32,0 191.17,-58.02 191.17,-161.41z"/>
            </g>
        </svg>


    </defs>


    <use x="0" y="0" xlink:href="#logo"/>
<!--    <use x="450" y="10" width="200" height="200" xlink:href="#rotite"/>-->
    <image x="350" y="10" width="126" height="126" xlink:href="icon.svg"/>

    <svg x="250" y="150">
        <a href="https://www.terrabit.ro">
            <text x="0" y="20" font-size="25px" font-family="sans-serif">Property Management</text>
        </a>
    </svg>


    <use x="450" y="180" width="200" height="200" href="#terrabit" xlink:href="#terrabit"/>


</svg>
