<svg
  xmlns="http://www.w3.org/2000/svg"
  xmlns:xlink="http://www.w3.org/1999/xlink"
  width="255"
  height="255"
  viewBox="0 0 70 70"
>
  <defs>
    <path id="a" d="M4 0h61c4 0 5 1 5 5v60c0 4-1 5-5 5H4c-3 0-4-1-4-5V5c0-4 1-5 4-5z" />
    <linearGradient id="c" x1="0%" x2="100%" y1="0%" y2="100%">
      <stop offset="0%" stop-color="#005AA7" />
      <stop offset="100%" stop-color="#FFFDE4" />
    </linearGradient>


    <svg id="d"  viewBox="0 0 512 512">
  <path d="M184.1 38.2c9.9 8.9 10.7 24 1.8 33.9l-72 80c-4.4 4.9-10.6 7.8-17.2 7.9s-12.9-2.4-17.6-7L39 113c-9.4-9.4-9.4-24.6 0-33.9s24.6-9.4 33.9 0l22.1 22.1 55.1-61.2c8.9-9.9 24-10.7 33.9-1.8zm0 160c9.9 8.9 10.7 24 1.8 33.9l-72 80c-4.4 4.9-10.6 7.8-17.2 7.9s-12.9-2.4-17.6-7L39 273c-9.4-9.4-9.4-24.6 0-33.9s24.6-9.4 33.9 0l22.1 22.1 55.1-61.2c8.9-9.9 24-10.7 33.9-1.8zM256 96c0-17.7 14.3-32 32-32H512c17.7 0 32 14.3 32 32s-14.3 32-32 32H288c-17.7 0-32-14.3-32-32zm0 160c0-17.7 14.3-32 32-32H512c17.7 0 32 14.3 32 32s-14.3 32-32 32H288c-17.7 0-32-14.3-32-32zM192 416c0-17.7 14.3-32 32-32H512c17.7 0 32 14.3 32 32s-14.3 32-32 32H224c-17.7 0-32-14.3-32-32zM80 464c-26.5 0-48-21.5-48-48s21.5-48 48-48s48 21.5 48 48s-21.5 48-48 48z"/></svg>





  </defs>
  <g fill="none" fill-rule="evenodd">
    <mask id="b" fill="#fff">
      <use xlink:href="#a" />
    </mask>
    <g mask="url(#b)">
      <path fill="url(#c)" d="M0 0H70V70H0z" />
      <path fill="#FFF" fill-opacity=".383" d="M4 1h61c2.667 0 4.333.667 5 2V0H0v3c.667-1.333 2-2 4-2z" />
      <path fill="#000" fill-opacity=".383" d="M4 69h61c2.667 0 4.333-1 5-3v4H0v-4c.667 2 2 3 4 3z" />
      <!--            <svg fill="#FFF" x="10" y="11" width="50" height="50" viewBox="0 0 128 128">-->
      <!--                <use fill="#000" fill-rule="nonzero" opacity=".3" xlink:href="#d"/>-->
      <!--            </svg>-->
      <svg fill="#FFF" x="8" y="10" width="50" height="50" viewBox="0 0 128 128">
        <use  xlink:href="#d" />
      </svg>
    </g>
  </g>
</svg>
