<svg xmlns="http://www.w3.org/2000/svg" width="256" height="256" viewBox="0 0 100 100">
<g transform="translate(-4.05,-2.04) scale(1.0287)"><defs><mask id="cut" maskUnits="userSpaceOnUse" x="-20" y="-20" width="140" height="140"><rect x="-20" y="-20" width="140" height="140" fill="#fff"/><circle cx="77" cy="77" r="19" fill="#000"/></mask></defs><g mask="url(#cut)"><path d="M12,62 v12 a34,10 0 0 0 68,0 v-12z" fill="#144496"/><ellipse cx="46" cy="62" rx="34" ry="10" fill="#005E7A"/><path d="M12,40 v12 a34,10 0 0 0 68,0 v-12z" fill="#144496"/><ellipse cx="46" cy="40" rx="34" ry="10" fill="#005E7A"/><path d="M12,18 v12 a34,10 0 0 0 68,0 v-12z" fill="#144496"/><ellipse cx="46" cy="18" rx="34" ry="10" fill="#005E7A"/></g><circle cx="78" cy="78" r="15" fill="#F78613"/><circle cx="76" cy="76" r="15" fill="#FBB945"/><path d="M70,67 h9 l5,5 v14 h-14z" fill="#FFFFFF"/></g>
</svg>
