<svg xmlns="http://www.w3.org/2000/svg" width="256" height="256" viewBox="0 0 100 100">
<g transform="translate(-2.04,-2.04) scale(1.0287)"><defs><mask id="cut" maskUnits="userSpaceOnUse" x="-20" y="-20" width="140" height="140"><rect x="-20" y="-20" width="140" height="140" fill="#fff"/><circle cx="77" cy="77" r="19" fill="#000"/></mask></defs><g mask="url(#cut)"><g transform="translate(3,3)" fill="#F9464C"><path d="M8,12 a4,4 0 0 1 4,-4 h32 l40,40 a4,4 0 0 1 0,6 l-30,30 a4,4 0 0 1 -6,0 l-40,-40z"/></g><g fill="#FC868B"><path d="M8,12 a4,4 0 0 1 4,-4 h32 l40,40 a4,4 0 0 1 0,6 l-30,30 a4,4 0 0 1 -6,0 l-40,-40z"/></g><circle cx="26" cy="26" r="6" fill="#FFFFFF"/></g><circle cx="78" cy="78" r="15" fill="#1A6F66"/><circle cx="76" cy="76" r="15" fill="#03AF89"/><path d="M76,68 v16 M68,76 h16" fill="none" stroke="#FFFFFF" stroke-width="4" stroke-linecap="round" stroke-linejoin="round"/></g>
</svg>
